<?xml version="1.0" encoding="UTF-8"?><svg id="b" xmlns="http://www.w3.org/2000/svg" width="206.93" height="196.04" viewBox="0 0 206.93 196.04"><defs><style>.d,.e{stroke:#29abe2;}.d,.e,.f{stroke-miterlimit:10;}.d,.f{fill:none;stroke-width:2px;}.g{font-family:NotoSansJP-Regular, 'Noto Sans JP';font-size:21px;}.e{fill:#fff;}.f{stroke:#000;}</style></defs><g id="c"><path class="f" d="M73.68,156.02C31.21,56.05,119.73,19.7,173.68,56.02"/><rect class="d" x="68.68" y="151.07" width="10" height="10"/><rect class="d" x="168.71" y="51.05" width="10" height="10"/><line class="e" x1="31.21" y1="56.05" x2="73.68" y2="156.02"/><circle class="e" cx="31.21" cy="56.05" r="3"/><line class="e" x1="119.73" y1="19.7" x2="173.68" y2="56.02"/><circle class="e" cx="119.73" cy="19.7" r="3"/><text class="g" transform="translate(0 38.94)"><tspan x="0" y="0">p</tspan></text><text class="g" transform="translate(13.02 45.93) scale(.58)"><tspan x="0" y="0">1out</tspan></text><text class="g" transform="translate(80.25 18.48)"><tspan x="0" y="0">p</tspan></text><text class="g" transform="translate(93.27 25.47) scale(.58)"><tspan x="0" y="0">2in</tspan></text><text class="g" transform="translate(90.05 167.04)"><tspan x="0" y="0">p</tspan></text><text class="g" transform="translate(103.07 174.03) scale(.58)"><tspan x="0" y="0">1</tspan></text><text class="g" transform="translate(187.11 71.12)"><tspan x="0" y="0">p</tspan></text><text class="g" transform="translate(200.13 78.11) scale(.58)"><tspan x="0" y="0">2</tspan></text></g></svg>