<?xml version="1.0" encoding="UTF-8"?><svg id="b" xmlns="http://www.w3.org/2000/svg" width="486.79" height="279.91" viewBox="0 0 486.79 279.91"><defs><style>.d{fill:#009245;}.e{font-family:KozGoPr6N-Regular-83pv-RKSJ-H, 'Kozuka Gothic Pr6N';font-size:21px;}.f{fill:blue;}.g{fill:#ed1c24;}.h{stroke:blue;}.h,.i,.j,.k{fill:none;stroke-miterlimit:10;}.h,.j,.k{stroke-width:4px;}.i{stroke:#000;stroke-width:2px;}.j{stroke:#009245;}.k{stroke:#ed1c24;}</style></defs><g id="c"><path class="i" d="M273.46,71.05c.96-8.65-2.74-16.88-10.02-20.49-9.7-4.8-22.09.44-27.67,11.71-.6,1.21-1.08,2.44-1.47,3.68,5.72,3.98,9.54,11.24,9.54,19.54,0,.14,0,.29,0,.43,4.31-1.69,8.82-1.41,12.04,1.23.13.11.25.23.37.35"/><path class="i" d="M285.51,113.01c5.52-4.03,9.19-11.16,9.19-19.28,0-12.57-8.78-22.77-19.6-22.77-.55,0-1.09.03-1.63.08-.32,2.88-1.16,5.8-2.55,8.61-2.74,5.53-7.12,9.61-12.02,11.76.57,1.5.84,3.15.8,4.89"/><path class="i" d="M258.89,91.42c-.57-1.5-1.46-2.84-2.65-3.92"/><path class="i" d="M250.98,134.34c.77.67,1.6,1.3,2.51,1.84,9.32,5.51,22.06,1.2,28.46-9.62,2.57-4.35,3.7-9.08,3.56-13.55-3.02,2.2-6.59,3.48-10.42,3.48-7.64,0-14.26-5.08-17.5-12.5-.62,1.18-1.36,2.33-2.26,3.43-1.56,1.91-3.38,3.42-5.3,4.55"/><path class="i" d="M257.6,104c1.33-2.53,2.04-5.18,2.1-7.69"/><path class="i" d="M234.3,65.95c-2.94-2.05-6.38-3.23-10.06-3.23-10.83,0-19.6,10.19-19.6,22.77,0,8.98,4.48,16.75,10.98,20.45,4.12-4.26,10.15-6.05,16.33-5.31.49-3.05,1.87-6.19,4.15-8.97.96-1.18,2.03-2.2,3.15-3.08"/><path class="i" d="M243.83,85.92c-1.58.62-3.14,1.51-4.59,2.66"/><path class="i" d="M215.62,105.94c-.39.41-.78.83-1.14,1.28-6.71,8.5-4.15,21.7,5.72,29.49,9.87,7.79,23.31,7.22,30.02-1.28.28-.35.52-.73.76-1.09-5.45-4.74-7.54-12.64-5.71-20.45-3.56.79-7.07.21-9.71-1.95-1.75-1.44-2.89-3.39-3.44-5.6"/><path class="i" d="M245.27,113.89c1.61-.36,3.22-1.01,4.77-1.92"/><path class="i" d="M231.95,100.63c-.32,1.99-.27,3.93.18,5.7"/><path class="i" d="M264.69,138.58c6.02,7.9,14.77,76.85,1.53,97.13"/><path class="i" d="M269.42,137.45c6.02,7.9,14.77,76.85,1.53,97.13"/><polyline class="i" points="308.97 45.72 317.88 45.72 317.88 141.13 308.97 141.13"/><polyline class="i" points="190.36 46.13 181.45 46.13 181.45 236.12 190.36 236.12"/><polyline class="i" points="308.97 144.54 317.88 144.54 317.38 234.57 308.47 234.57"/><text class="e" transform="translate(339.79 96.3)"><tspan x="0" y="0">花オブジェクト</tspan></text><text class="e" transform="translate(239.24 18.48)"><tspan x="0" y="0">花弁オブジェクト</tspan></text><text class="e" transform="translate(0 142.2)"><tspan x="0" y="0">植物オブジェクト</tspan></text><text class="e" transform="translate(339.79 195.61)"><tspan x="0" y="0">茎オブジェクト</tspan></text><polyline class="i" points="234.3 41.25 234.3 32.33 275.21 32.33 275.21 41.25"/><line class="k" x1="151.49" y1="278.09" x2="135.96" y2="268.52"/><path class="g" d="M125.68,262.19c5.94,1.18,13.83,1.82,19.54.87l-7.92,6.29-2.06,9.9c-1.72-5.53-5.84-12.29-9.57-17.06Z"/><line class="h" x1="150.37" y1="278.09" x2="187.19" y2="261.36"/><path class="f" d="M198.17,256.36c-4.3,4.27-9.23,10.46-11.63,15.73l-.8-10.08-7.07-7.23c5.55,1.66,13.46,2.02,19.5,1.58Z"/><line class="j" x1="151.49" y1="276.92" x2="151.49" y2="223.9"/><path class="d" d="M151.49,211.83c2.11,5.68,5.7,12.73,9.51,17.09l-9.51-3.44-9.51,3.44c3.81-4.37,7.4-11.42,9.51-17.09Z"/><text class="e" transform="translate(25.75 250.36)"><tspan x="0" y="0">端末座標系</tspan></text></g></svg>