<?xml version="1.0" encoding="UTF-8"?><svg id="b" xmlns="http://www.w3.org/2000/svg" width="377.32" height="222.59" viewBox="0 0 377.32 222.59"><defs><style>.d,.e,.f,.g,.h,.i,.j,.k{stroke-miterlimit:10;}.d,.e,.g,.h,.j,.k{fill:none;}.d,.e,.k{stroke-width:2px;}.d,.i{stroke:#29abe2;}.l{fill:#f6c;}.e,.f{stroke:#fbb03b;}.f,.i{fill:#fff;}.g{stroke:#f6c;stroke-width:4px;}.g,.h,.j{stroke-linecap:round;}.m{font-family:KozGoPr6N-Regular-83pv-RKSJ-H, 'Kozuka Gothic Pr6N';font-size:12px;}.n{font-family:NotoSansJP-Regular, 'Noto Sans JP';font-size:21px;}.h{stroke-width:6px;}.h,.j{stroke:#fff;}.j{stroke-width:7px;}.o{fill:#29abe2;}.k{stroke:#000;}.p{fill:#fbb03b;}</style></defs><g id="c"><line class="j" x1="276.04" y1="127.76" x2="304.64" y2="194.27"/><line class="g" x1="276.04" y1="127.76" x2="299.88" y2="183.18"/><path class="l" d="M304.64,194.27c-4.18-4.38-10.27-9.44-15.49-11.95l10.1-.6,7.38-6.92c-1.77,5.52-2.29,13.41-1.98,19.46Z"/><path class="k" d="M90.59,182.57c-43.16-99.97,4.32-136.34,70.85-96.59"/><rect class="d" x="85.53" y="177.57" width="10" height="10"/><line class="i" x1="47.43" y1="82.59" x2="90.59" y2="182.57"/><circle class="i" cx="47.43" cy="82.59" r="3"/><path class="o" d="M155.44,92.03v-12h12l-2,2h-8v8l-2,2Z"/><line class="i" x1="94.9" y1="46.25" x2="161.44" y2="85.98"/><circle class="i" cx="94.9" cy="46.25" r="3"/><text class="n" transform="translate(0 82.57)"><tspan x="0" y="0">p</tspan></text><text class="n" transform="translate(13.02 89.56) scale(.58)"><tspan x="0" y="0">1out</tspan></text><text class="n" transform="translate(52.78 46.25)"><tspan x="0" y="0">p</tspan></text><text class="n" transform="translate(65.8 53.24) scale(.58)"><tspan x="0" y="0">2in</tspan></text><text class="n" transform="translate(101.84 193.59)"><tspan x="0" y="0">p</tspan></text><text class="n" transform="translate(114.86 200.58) scale(.58)"><tspan x="0" y="0">1</tspan></text><path class="k" d="M159.63,85.72c40.45,24.17,74.84,9.08,82.16-37.47"/><rect class="e" x="236.79" y="43.25" width="10" height="10"/><line class="f" x1="159.63" y1="85.72" x2="200.1" y2="109.88"/><circle class="f" cx="200.1" cy="109.88" r="3"/><path class="p" d="M165.63,79.77v12h-12l2-2h8v-8l2-2Z"/><line class="f" x1="241.79" y1="48.25" x2="234.48" y2="94.8"/><circle class="f" cx="234.48" cy="94.8" r="3"/><text class="n" transform="translate(207.23 127.18)"><tspan x="0" y="0">p</tspan></text><text class="n" transform="translate(220.25 134.17) scale(.58)"><tspan x="0" y="0">2out</tspan></text><text class="n" transform="translate(241.79 102.8)"><tspan x="0" y="0">p</tspan></text><text class="n" transform="translate(254.81 109.79) scale(.58)"><tspan x="0" y="0">3in</tspan></text><text class="n" transform="translate(171.78 81.08)"><tspan x="0" y="0">p</tspan></text><text class="n" transform="translate(184.8 88.07) scale(.58)"><tspan x="0" y="0">2</tspan></text><text class="n" transform="translate(256.91 57.31)"><tspan x="0" y="0">p</tspan></text><text class="n" transform="translate(269.93 64.3) scale(.58)"><tspan x="0" y="0">3</tspan></text><text class="m" transform="translate(286.7 15.97)"><tspan x="0" y="0">連動して回転</tspan></text><text class="m" transform="translate(305.32 156.49)"><tspan x="0" y="0">連動して移動</tspan></text><path class="h" d="M234.51,10.59c20.41-6.51,42.2,4.75,48.66,25.16"/><path class="g" d="M234.51,10.59c20.41-6.51,42.2,4.75,48.66,25.16"/><path class="l" d="M223.01,14.26c6.05.28,13.86,1.56,19.18,3.87l-6.17-8.02.39-10.11c-3,4.96-8.62,10.52-13.4,14.26Z"/></g></svg>