<?xml version="1.0" encoding="UTF-8"?><svg id="b" xmlns="http://www.w3.org/2000/svg" width="121.62" height="150.07" viewBox="0 0 121.62 150.07"><defs><style>.d,.e,.f,.g,.h,.i,.j,.k,.l,.m,.n,.o{fill:none;stroke-miterlimit:10;}.d,.e,.f,.g,.i,.j,.k,.m,.n{stroke-linecap:round;}.d,.e,.i,.j,.m,.n{stroke-width:3px;}.d,.g,.i,.o{stroke:#ed1c24;}.e,.f,.g,.i{stroke-dasharray:1 5;}.e,.f,.h,.m{stroke:blue;}.p{fill:#009245;}.f,.g{stroke-width:2px;}.q{fill:blue;}.r{fill:#ed1c24;}.h,.l,.o{stroke-width:4px;}.j,.l,.n{stroke:#009245;}.k{stroke:#999;}.n{stroke-dasharray:.5 5;}</style></defs><g id="c"><path class="i" d="M79.44,17.31c14.04,7.54,22.07,20.13,22.08,33.19"/><circle class="k" cx="51.61" cy="50.5" r="50"/><path class="i" d="M5.58,34.68c.26-.49.54-.97.83-1.46,2.28-3.81,5.21-7.19,8.64-10.12,10.55-9,25.8-13.59,41.09-12.45,5.73.43,11.47,1.66,16.96,3.76,2.23.85,4.34,1.82,6.34,2.89"/><path class="n" d="M23.57,83.55c-1.07-10.41,2.33-25.88,9.9-41.69,6.55-13.68,14.86-24.78,22.67-31.21"/><path class="e" d="M15.05,23.11c10.24-2.36,27.45.9,45.1,9.35,20.79,9.95,35.6,23.95,37.15,34.11"/><path class="g" d="M1.5,50.49c0-5.29,1.31-10.66,4.08-15.81"/><path class="e" d="M6.41,28.91c1.39-2.91,4.42-4.83,8.64-5.8"/><path class="n" d="M56.14,10.66c6.4-5.27,12.47-7.41,16.96-5.26"/><path class="f" d="M97.3,66.57c.31,2.01.1,3.87-.69,5.52"/><path class="n" d="M29.92,95.6c-3.64-1.74-5.74-6.06-6.35-12.05"/><path class="m" d="M96.61,72.09c-4.77,9.96-28.83,8.37-53.73-3.55S1.64,38.87,6.41,28.91"/><path class="j" d="M73.1,5.4c9.96,4.77,8.37,28.83-3.55,53.73-11.92,24.91-29.67,41.23-39.63,36.46"/><path class="d" d="M101.52,50.5c0,5.38-1.35,10.85-4.22,16.07-.22.4-.45.81-.69,1.21-2.24,3.74-5.1,7.07-8.45,9.95-10.56,9.11-25.9,13.76-41.28,12.62-5.73-.43-11.47-1.66-16.96-3.76-2.23-.85-4.34-1.82-6.34-2.89C9.54,76.14,1.51,63.55,1.5,50.49"/><line class="o" x1="49.61" y1="90.51" x2="49.61" y2="135.72"/><polygon class="r" points="39.64 132.8 49.61 150.07 59.59 132.8 39.64 132.8"/><line class="l" x1="69.55" y1="59.14" x2="109.23" y2="82.33"/><polygon class="p" points="101.68 89.47 121.62 89.58 111.74 72.25 101.68 89.47"/><line class="h" x1="42.88" y1="68.54" x2="18.18" y2="114.03"/><polygon class="q" points="10.81 106.71 11.34 126.64 28.34 116.22 10.81 106.71"/></g></svg>