<?xml version="1.0" encoding="UTF-8"?><svg id="b" xmlns="http://www.w3.org/2000/svg" width="127.01" height="142.23" viewBox="0 0 127.01 142.23"><defs><style>.d,.e,.f,.g,.h,.i,.j,.k,.l,.m,.n,.o,.p{fill:none;stroke-miterlimit:10;}.d,.f,.g,.i{stroke:blue;}.d,.i,.j,.m,.o,.p{stroke-width:4px;}.d,.j,.o{stroke-dasharray:2 2;}.e{stroke-dasharray:.5 5;}.e,.f,.g,.h,.k,.l,.n{stroke-linecap:round;}.e,.f,.g,.h,.l,.n{stroke-width:2px;}.e,.j,.m,.n{stroke:#009245;}.q{fill:#009245;}.g,.h{stroke-dasharray:1 5;}.h,.l,.o,.p{stroke:#ed1c24;}.r{fill:blue;}.s{fill:#ed1c24;}.k{stroke:#999;}</style></defs><g id="c"><line class="i" x1="97.59" y1="46.63" x2="103.81" y2="33.89"/><polygon class="r" points="111.49 40.89 110.1 20.99 93.56 32.14 111.49 40.89"/><line class="m" x1="32.24" y1="68.15" x2="12.71" y2="57.92"/><polygon class="q" points="19.92 50.44 0 51.27 10.67 68.11 19.92 50.44"/><path class="h" d="M103.93,58.54c14.04,7.54,22.07,20.13,22.08,33.19"/><path class="h" d="M30.07,75.92c.26-.49.54-.97.83-1.46,2.28-3.81,5.21-7.19,8.64-10.12,10.55-9,25.8-13.59,41.09-12.45,5.73.43,11.47,1.66,16.96,3.76,2.23.85,4.34,1.82,6.34,2.89"/><path class="e" d="M48.06,124.79c-1.07-10.41,2.33-25.88,9.9-41.69,6.55-13.68,14.86-24.78,22.67-31.21"/><path class="g" d="M39.54,64.34c10.24-2.36,27.45.9,45.1,9.35,20.79,9.95,35.6,23.95,37.15,34.11"/><path class="h" d="M25.99,91.72c0-5.29,1.31-10.66,4.08-15.81"/><path class="g" d="M30.9,70.14c1.39-2.91,4.42-4.83,8.64-5.8"/><path class="e" d="M80.63,51.89c6.4-5.27,12.47-7.41,16.96-5.26"/><path class="g" d="M121.79,107.8c.31,2.01.1,3.87-.69,5.52"/><path class="e" d="M54.41,136.83c-3.64-1.74-5.74-6.06-6.35-12.05"/><line class="p" x1="74.1" y1="41.73" x2="74.1" y2="14.35"/><polygon class="s" points="84.07 17.27 74.1 0 64.13 17.27 84.07 17.27"/><line class="d" x1="84.63" y1="73.69" x2="97.59" y2="46.63"/><line class="o" x1="74.1" y1="51.72" x2="74.1" y2="41.73"/><line class="j" x1="58.63" y1="81.72" x2="32.24" y2="68.15"/><circle class="k" cx="76.09" cy="91.73" r="50"/><path class="n" d="M97.59,46.63c9.96,4.77,8.37,28.83-3.55,53.73s-29.67,41.23-39.63,36.46"/><path class="f" d="M121.1,113.32c-4.77,9.96-28.83,8.37-53.73-3.55-24.91-11.92-41.23-29.67-36.46-39.63"/><path class="l" d="M126.01,91.73c0,5.38-1.35,10.85-4.22,16.07-.22.4-.45.81-.69,1.21-2.24,3.74-5.1,7.07-8.45,9.95-10.56,9.11-25.9,13.76-41.28,12.62-5.73-.43-11.47-1.66-16.96-3.76-2.23-.85-4.34-1.82-6.34-2.89-14.04-7.54-22.08-20.14-22.08-33.2"/></g></svg>