<?xml version="1.0" encoding="UTF-8"?><svg id="b" xmlns="http://www.w3.org/2000/svg" width="278.53" height="193.33" viewBox="0 0 278.53 193.33"><defs><style>.d,.e,.f{fill:none;stroke-width:2px;}.d,.e,.f,.g,.h{stroke-miterlimit:10;}.d,.h{stroke:#29abe2;}.e,.g{stroke:#fbb03b;}.f{opacity:.5;stroke:#999;}.g,.h{fill:#fff;}.i{font-family:NotoSansJP-Regular, 'Noto Sans JP';font-size:21px;}.j{fill:#29abe2;}.k{fill:#fbb03b;}</style></defs><g id="c"><circle cx="243.67" cy="21.99" r="1.25"/><circle cx="241.36" cy="26.92" r="1.25"/><circle cx="239.78" cy="34.52" r="1.25"/><circle cx="236.58" cy="43.29" r="1.25"/><circle cx="233.41" cy="47.91" r="1.25"/><circle cx="229.65" cy="53.12" r="1.25"/><circle cx="224.11" cy="57.58" r="1.25"/><circle cx="218.36" cy="62.77" r="1.25"/><circle cx="211.62" cy="65.91" r="1.25"/><circle cx="205.84" cy="66.35" r="1.25"/><circle cx="200.02" cy="67.4" r="1.25"/><circle cx="194.02" cy="66.85" r="1.25"/><circle cx="188.4" cy="66.71" r="1.25"/><circle cx="179.03" cy="64.27" r="1.25"/><circle cx="170.3" cy="60.98" r="1.25"/><circle cx="163.47" cy="56.24" r="1.25"/><circle cx="156.96" cy="54.36" r="1.25"/><circle cx="151.27" cy="52.86" r="1.25"/><circle cx="144.52" cy="47.48" r="1.25"/><circle cx="136.39" cy="45.14" r="1.25"/><circle cx="130.9" cy="43.07" r="1.25"/><circle cx="122.88" cy="41.54" r="1.25"/><circle cx="115.58" cy="40.36" r="1.25"/><circle cx="106.83" cy="41.26" r="1.25"/><circle cx="102.58" cy="44.79" r="1.25"/><circle cx="93.9" cy="46.97" r="1.25"/><circle cx="87.21" cy="49.79" r="1.25"/><circle cx="82.35" cy="58.83" r="1.25"/><circle cx="78.8" cy="62.74" r="1.25"/><circle cx="75.48" cy="71.17" r="1.25"/><circle cx="75.23" cy="78.96" r="1.25"/><circle cx="75" cy="84" r="1.25"/><circle cx="76.11" cy="89.01" r="1.25"/><circle cx="76.37" cy="97.7" r="1.25"/><circle cx="76.47" cy="106.43" r="1.25"/><circle cx="78.03" cy="111.73" r="1.25"/><circle cx="80.07" cy="118.61" r="1.25"/><circle cx="83.2" cy="126.96" r="1.25"/><circle cx="84.6" cy="134.66" r="1.25"/><circle cx="86.56" cy="141.52" r="1.25"/><circle cx="88.14" cy="146.41" r="1.25"/><circle cx="89.24" cy="153.77" r="1.25"/><rect class="e" x="238.6" y="14.25" width="10" height="10"/><rect class="d" x="85.53" y="148.31" width="10" height="10"/><line class="h" x1="47.43" y1="53.34" x2="90.59" y2="153.31"/><circle class="h" cx="47.43" cy="53.34" r="3"/><path class="j" d="M155.44,62.77v-12h12l-2,2h-8v8l-2,2Z"/><line class="h" x1="94.9" y1="16.99" x2="161.44" y2="56.72"/><line class="g" x1="161.44" y1="56.72" x2="201.9" y2="80.89"/><circle class="h" cx="94.9" cy="16.99" r="3"/><circle class="g" cx="201.9" cy="80.89" r="3"/><path class="k" d="M167.44,50.77v12h-12l2-2h8v-8l2-2Z"/><line class="g" x1="243.6" y1="19.25" x2="236.28" y2="65.8"/><circle class="g" cx="236.28" cy="65.8" r="3"/><text class="i" transform="translate(101.84 164.33)"><tspan x="0" y="0">p</tspan></text><text class="i" transform="translate(114.86 171.32) scale(.58)"><tspan x="0" y="0">1</tspan></text><text class="i" transform="translate(173.58 52.08)"><tspan x="0" y="0">p</tspan></text><text class="i" transform="translate(186.6 59.08) scale(.58)"><tspan x="0" y="0">2</tspan></text><text class="i" transform="translate(258.71 28.31)"><tspan x="0" y="0">p</tspan></text><text class="i" transform="translate(271.73 35.3) scale(.58)"><tspan x="0" y="0">3</tspan></text><path class="f" d="M90.59,153.31c-43.16-99.97,4.32-136.34,70.85-96.59,40.45,24.17,74.84,9.08,82.16-37.47"/><text class="i" transform="translate(0 54.8)"><tspan x="0" y="0">p</tspan></text><text class="i" transform="translate(13.02 61.79) scale(.58)"><tspan x="0" y="0">1out</tspan></text><text class="i" transform="translate(52.78 18.48)"><tspan x="0" y="0">p</tspan></text><text class="i" transform="translate(65.8 25.47) scale(.58)"><tspan x="0" y="0">2in</tspan></text><text class="i" transform="translate(209.04 99.67)"><tspan x="0" y="0">p</tspan></text><text class="i" transform="translate(222.06 106.66) scale(.58)"><tspan x="0" y="0">2out</tspan></text><text class="i" transform="translate(243.6 75.29)"><tspan x="0" y="0">p</tspan></text><text class="i" transform="translate(256.62 82.28) scale(.58)"><tspan x="0" y="0">3in</tspan></text></g></svg>