<?xml version="1.0" encoding="UTF-8"?><svg id="b" xmlns="http://www.w3.org/2000/svg" width="304.96" height="251.44" viewBox="0 0 304.96 251.44"><defs><style>.d,.e,.f,.g,.h{stroke-miterlimit:10;}.d,.e,.h{fill:none;stroke-width:2px;}.d,.g{stroke:#29abe2;}.e,.f{stroke:#fbb03b;}.f,.g{fill:#fff;}.i{font-family:NotoSansJP-Regular, 'Noto Sans JP';font-size:21px;}.j{fill:#29abe2;}.h{stroke:#000;}.k{letter-spacing:-.5em;}.l{fill:#fbb03b;}.m{font-family:KozGoPr6N-Bold-83pv-RKSJ-H, 'Kozuka Gothic Pr6N';font-size:24px;font-weight:700;}</style></defs><g id="c"><path class="h" d="M90.59,211.41c-43.16-99.97,4.32-136.34,70.85-96.59"/><rect class="d" x="85.53" y="206.41" width="10" height="10"/><line class="g" x1="47.43" y1="111.44" x2="90.59" y2="211.41"/><circle class="g" cx="47.43" cy="111.44" r="3"/><path class="j" d="M155.44,120.88v-12h12l-2,2h-8v8l-2,2Z"/><line class="g" x1="94.9" y1="75.1" x2="161.44" y2="114.83"/><circle class="g" cx="94.9" cy="75.1" r="3"/><text class="i" transform="translate(0 111.41)"><tspan x="0" y="0">p</tspan></text><text class="i" transform="translate(13.02 118.41) scale(.58)"><tspan x="0" y="0">1out</tspan></text><text class="i" transform="translate(52.78 75.1)"><tspan x="0" y="0">p</tspan></text><text class="i" transform="translate(65.8 82.09) scale(.58)"><tspan x="0" y="0">2in</tspan></text><text class="i" transform="translate(101.84 222.43)"><tspan x="0" y="0">p</tspan></text><text class="i" transform="translate(114.86 229.43) scale(.58)"><tspan x="0" y="0">1</tspan></text><path class="h" d="M161.44,114.83c40.45,24.17,74.84,9.08,82.16-37.47"/><rect class="e" x="238.6" y="72.36" width="10" height="10"/><line class="f" x1="161.44" y1="114.83" x2="201.9" y2="138.99"/><circle class="f" cx="201.9" cy="138.99" r="3"/><path class="l" d="M167.44,108.88v12h-12l2-2h8v-8l2-2Z"/><line class="f" x1="243.6" y1="77.36" x2="236.28" y2="123.91"/><circle class="f" cx="236.28" cy="123.91" r="3"/><text class="i" transform="translate(209.04 156.29)"><tspan x="0" y="0">p</tspan></text><text class="i" transform="translate(222.06 163.28) scale(.58)"><tspan x="0" y="0">2out</tspan></text><text class="i" transform="translate(243.6 131.9)"><tspan x="0" y="0">p</tspan></text><text class="i" transform="translate(256.62 138.89) scale(.58)"><tspan x="0" y="0">3in</tspan></text><text class="i" transform="translate(173.58 110.19)"><tspan x="0" y="0">p</tspan></text><text class="i" transform="translate(186.6 117.18) scale(.58)"><tspan x="0" y="0">2</tspan></text><text class="i" transform="translate(258.71 86.41)"><tspan x="0" y="0">p</tspan></text><text class="i" transform="translate(271.73 93.41) scale(.58)"><tspan x="0" y="0">3</tspan></text><text class="m" transform="translate(28.96 21.12)"><tspan x="0" y="0">通常選択モード（選択後</tspan><tspan class="k" x="264" y="0">）</tspan></text></g></svg>