<?xml version="1.0" encoding="UTF-8"?><svg id="b" xmlns="http://www.w3.org/2000/svg" width="278.53" height="194.82" viewBox="0 0 278.53 194.82"><defs><style>.d,.e,.f,.g,.h{stroke-miterlimit:10;}.d,.e,.h{fill:none;stroke-width:2px;}.d,.g{stroke:#29abe2;}.e,.f{stroke:#fbb03b;}.f,.g{fill:#fff;}.i{font-family:NotoSansJP-Regular, 'Noto Sans JP';font-size:21px;}.j{fill:#29abe2;}.h{stroke:#000;}.k{fill:#fbb03b;}</style></defs><g id="c"><path class="h" d="M90.59,154.8c-43.16-99.97,4.32-136.34,70.85-96.59,40.45,24.17,74.84,9.08,82.16-37.47"/><rect class="e" x="238.6" y="15.74" width="10" height="10"/><rect class="d" x="85.53" y="149.8" width="10" height="10"/><line class="g" x1="47.43" y1="54.82" x2="90.59" y2="154.8"/><circle class="g" cx="47.43" cy="54.82" r="3"/><path class="j" d="M155.44,64.26v-12h12l-2,2h-8v8l-2,2Z"/><line class="g" x1="94.9" y1="18.48" x2="161.44" y2="58.21"/><line class="f" x1="161.44" y1="58.21" x2="201.9" y2="82.37"/><circle class="g" cx="94.9" cy="18.48" r="3"/><circle class="f" cx="201.9" cy="82.37" r="3"/><path class="k" d="M167.44,52.26v12h-12l2-2h8v-8l2-2Z"/><line class="f" x1="243.6" y1="20.74" x2="236.28" y2="67.29"/><circle class="f" cx="236.28" cy="67.29" r="3"/><text class="i" transform="translate(0 54.8)"><tspan x="0" y="0">p</tspan></text><text class="i" transform="translate(13.02 61.79) scale(.58)"><tspan x="0" y="0">1out</tspan></text><text class="i" transform="translate(52.78 18.48)"><tspan x="0" y="0">p</tspan></text><text class="i" transform="translate(65.8 25.47) scale(.58)"><tspan x="0" y="0">2in</tspan></text><text class="i" transform="translate(209.04 99.67)"><tspan x="0" y="0">p</tspan></text><text class="i" transform="translate(222.06 106.66) scale(.58)"><tspan x="0" y="0">2out</tspan></text><text class="i" transform="translate(243.6 75.29)"><tspan x="0" y="0">p</tspan></text><text class="i" transform="translate(256.62 82.28) scale(.58)"><tspan x="0" y="0">3in</tspan></text><text class="i" transform="translate(101.84 165.82)"><tspan x="0" y="0">p</tspan></text><text class="i" transform="translate(114.86 172.81) scale(.58)"><tspan x="0" y="0">1</tspan></text><text class="i" transform="translate(173.58 53.57)"><tspan x="0" y="0">p</tspan></text><text class="i" transform="translate(186.6 60.56) scale(.58)"><tspan x="0" y="0">2</tspan></text><text class="i" transform="translate(258.71 29.8)"><tspan x="0" y="0">p</tspan></text><text class="i" transform="translate(271.73 36.79) scale(.58)"><tspan x="0" y="0">3</tspan></text></g></svg>